<svg width="106" height="120" viewBox="0 0 67 120" fill="none" xmlns="http://www.w3.org/2000/svg">
<g clip-path="url(#clip0_129_2384)">
<path fill-rule="evenodd" clip-rule="evenodd" d="M58.529 64.9768L33.3482 0L8.16998 64.9768H25.447L33.1799 41.935L40.9128 64.9768H58.529ZM39.695 84.5148L32.8618 60L26.0287 84.5148L32.8618 78.9716L39.695 84.5148ZM32.543 77.789V65.8064L28.0764 81.2903L32.543 77.789ZM52.8331 68.3955L45.835 73.8026L44.0287 68.6239L52.8331 68.3955ZM22.5106 74.3013L15.1647 69.28L24.0097 68.6445L22.5106 74.3013ZM45.6876 79.8587L59.9305 68.8477L66.6982 86.3116L51.9673 101.021L45.6876 79.8587ZM33.181 89.1239L51.128 101.859L33.3493 119.612L15.4307 101.719L33.181 89.1239ZM14.4715 100.762L20.6743 79.8587L6.6903 69.0477L0 86.3116L14.4715 100.762Z" fill="white"/>
</g>
<defs>
<clipPath id="clip0_129_2384">
<rect width="67" height="120" fill="white"/>
</clipPath>
</defs>
</svg>
