<svg width="295" height="120" viewBox="0 0 295 120" fill="none" xmlns="http://www.w3.org/2000/svg">
<path d="M242.072 27.1998V87.1195H225.723V93.0395H220.354V27.1998H242.072ZM225.723 81.9995H236.703V68.6395H225.723V81.9995ZM225.723 63.5198H236.703V50.4798H225.723V63.5198ZM225.723 45.4398H236.703V32.4798H225.723V45.4398ZM288.395 80.0795V96.56H283.506V94H262.188V96.56H257.139V80.0795H288.395ZM262.188 89.9195H283.506V84.1595H262.188V89.9195ZM266.917 42.5598L270.122 45.4398C266.596 48.4798 262.268 51.1998 257.139 53.5198L254.414 49.9998C259.383 47.8398 263.551 45.3598 266.917 42.5598ZM254.014 60.1598V67.3595C253.773 79.6795 251.369 89.5995 246.801 97.1195L242.633 93.2795C246.48 87.0395 248.564 78.3995 248.724 67.3595V42.9598C247.442 43.8398 246.24 44.7198 244.957 45.5998L243.435 40.5598C251.289 35.1198 256.819 29.2798 260.104 22.8798L265.634 23.9198C264.993 25.1198 264.272 26.3198 263.631 27.5198H282.544V31.0398C280.541 33.5998 278.537 35.7598 276.534 37.5998H290.639V42.3998H278.056C282.544 44.2398 286.552 46.4798 290.238 49.1198L287.674 53.1198C283.747 49.9998 279.739 47.5998 275.572 45.8398L277.816 42.3998H254.014V55.6798H271.324C270.523 53.8398 269.641 52.1598 268.68 50.7198L274.129 49.8398C274.931 51.5198 275.812 53.4398 276.614 55.6798H290.158V60.1598H254.014ZM260.665 31.6798C258.902 33.7598 257.059 35.7598 255.136 37.5998H270.523C272.446 35.8398 274.29 33.9198 276.213 31.6798H260.665ZM259.063 64.3998H286.632V68.2395H259.063V64.3998ZM259.063 72.1595H286.552V76.0795H259.063V72.1595Z" fill="white"/>
<path d="M121.229 68.16C118.744 73.36 115.939 77.92 112.734 81.84L108.887 77.36C113.615 71.92 117.462 64.72 120.347 55.9199L125.556 57.1198C124.915 59.1998 124.194 61.1199 123.473 63.0398H143.508V56.7199H149.439V63.0398H176.046V68.16H149.439V76.16H173.081V81.12H149.439V89.28H179.653V94.56H111.612V89.28H143.508V81.12H121.229V76.16H143.508V68.16H121.229ZM118.824 25.8398H170.997V54.1599H118.824V25.8398ZM165.307 49.2799V42.3198H124.515V49.2799H165.307ZM124.515 37.6798H165.307V30.7998H124.515V37.6798Z" fill="white"/>
<g clip-path="url(#clip0_210_2371)">
<mask id="mask0_210_2371" style="mask-type:luminance" maskUnits="userSpaceOnUse" x="0" y="0" width="67" height="120">
<path d="M67 0H0V120H67V0Z" fill="white"/>
</mask>
<g mask="url(#mask0_210_2371)">
<path fill-rule="evenodd" clip-rule="evenodd" d="M58.529 64.9768L33.3482 0L8.16998 64.9768H25.447L33.1799 41.935L40.9128 64.9768H58.529ZM39.695 84.5148L32.8618 60L26.0287 84.5148L32.8618 78.9716L39.695 84.5148ZM32.543 77.789V65.8064L28.0764 81.2903L32.543 77.789ZM52.8331 68.3955L45.835 73.8026L44.0287 68.6239L52.8331 68.3955ZM22.5106 74.3013L15.1647 69.28L24.0097 68.6445L22.5106 74.3013ZM45.6876 79.8587L59.9305 68.8477L66.6982 86.3116L51.9673 101.021L45.6876 79.8587ZM33.181 89.1239L51.128 101.859L33.3493 119.612L15.4307 101.719L33.181 89.1239ZM14.4715 100.762L20.6743 79.8587L6.6903 69.0477L0 86.3116L14.4715 100.762Z" fill="white"/>
</g>
</g>
<defs>
<clipPath id="clip0_210_2371">
<rect width="67" height="120" fill="white"/>
</clipPath>
</defs>
</svg>
